<?xml version="1.0" standalone="no"?>
<!DOCTYPE svg PUBLIC "-//W3C//DTD SVG 20010904//EN"
 "http://www.w3.org/TR/2001/REC-SVG-20010904/DTD/svg10.dtd">
<svg version="1.0" xmlns="http://www.w3.org/2000/svg"
 width="392.000000pt" height="392.000000pt" viewBox="0 0 392.000000 392.000000"
 preserveAspectRatio="xMidYMid meet">

<g transform="translate(0.000000,392.000000) scale(0.100000,-0.100000)"
fill="#000000" stroke="none">
<path d="M240 3911 c0 -4 -19 -16 -43 -25 -56 -21 -128 -95 -167 -170 l-30
-60 0 -1708 c0 -1132 3 -1708 10 -1708 6 0 10 -8 10 -18 0 -45 86 -146 167
-196 l43 -26 1735 0 1736 0 53 34 c64 41 88 65 132 133 l34 52 0 1736 0 1736
-34 52 c-45 70 -90 111 -161 147 l-59 30 -1713 0 c-956 0 -1713 -4 -1713 -9z
m970 -223 c0 -5 0 -226 0 -493 l0 -485 -495 0 -495 0 0 440 c0 464 2 483 46
521 11 10 28 19 39 22 33 8 905 3 905 -5z m1280 -488 l0 -490 -525 0 -525 0 0
490 0 490 525 0 525 0 0 -490z m1181 461 l29 -29 0 -461 0 -461 -490 0 -490 0
0 490 0 490 461 0 461 0 29 -29z m-2461 -1706 l0 -525 -490 0 -490 0 0 525 0
525 490 0 490 0 0 -525z m1290 0 l0 -525 -530 0 -530 0 0 525 0 525 530 0 530
0 0 -525z m1202 0 l3 -525 -495 2 -495 3 -3 523 -2 522 495 0 495 0 2 -525z
m-2492 -1245 l0 -490 -451 0 c-468 0 -474 0 -511 43 -17 18 -18 56 -18 479 l0
458 490 0 490 0 0 -490z m1280 0 l0 -490 -525 0 -525 0 0 490 0 490 525 0 525
0 0 -490z m1210 32 c0 -488 2 -471 -50 -506 -22 -14 -74 -16 -477 -16 l-453 0
0 490 0 490 490 0 490 0 0 -458z"/>
<path d="M545 3629 c-273 -96 -353 -439 -149 -643 223 -224 604 -97 656 219
28 165 -64 334 -222 408 -86 41 -196 48 -285 16z m188 -213 c108 -46 136 -189
53 -272 -82 -82 -219 -57 -270 50 -63 133 81 280 217 222z"/>
<path d="M1684 3530 c-20 -13 -35 -34 -43 -60 -17 -56 1 -90 90 -177 l73 -72
-81 -83 c-89 -92 -103 -124 -80 -179 19 -46 39 -61 92 -67 52 -5 77 10 167
103 29 30 57 55 62 55 5 0 46 -36 92 -80 79 -75 86 -80 127 -80 54 0 91 26
107 74 18 56 2 90 -85 176 l-79 80 77 76 c44 44 81 91 87 110 25 74 -31 144
-114 144 -35 0 -47 -8 -125 -85 l-87 -85 -69 71 c-102 103 -147 120 -211 79z"/>
<path d="M3097 3591 c-110 -36 -190 -106 -240 -211 -29 -59 -32 -74 -32 -160
0 -86 3 -101 32 -163 39 -82 107 -151 189 -191 78 -39 194 -47 279 -21 224 71
338 326 238 536 -84 177 -288 269 -466 210z m211 -228 c49 -36 72 -81 72 -140
0 -62 -17 -100 -60 -136 -111 -94 -280 -15 -280 130 0 78 26 120 95 158 41 22
136 16 173 -12z"/>
<path d="M1669 2251 c-24 -24 -29 -38 -29 -77 0 -45 3 -49 84 -133 l85 -86
-85 -86 c-80 -82 -84 -88 -84 -130 1 -69 43 -109 116 -109 32 0 46 9 123 84
l86 85 88 -86 87 -86 52 5 c67 7 98 41 98 107 0 42 -4 48 -84 130 l-85 86 85
86 c81 84 84 88 84 133 0 39 -5 53 -29 77 -24 24 -38 29 -77 29 -45 0 -49 -3
-133 -84 l-86 -85 -86 85 c-84 81 -88 84 -133 84 -39 0 -53 -5 -77 -29z"/>
<path d="M3080 2366 c-114 -33 -205 -108 -256 -211 -26 -55 -29 -69 -29 -165
0 -99 2 -110 33 -172 61 -125 183 -207 317 -216 165 -10 313 77 383 226 24 50
27 69 27 162 0 96 -3 110 -29 165 -62 126 -188 211 -326 220 -46 3 -92 -1
-120 -9z m182 -234 c53 -31 73 -71 73 -143 0 -56 -4 -71 -27 -101 -97 -127
-298 -58 -298 101 0 53 12 81 49 118 52 52 139 63 203 25z"/>
<path d="M395 1018 c-38 -22 -49 -40 -53 -93 l-4 -53 83 -86 83 -87 -80 -80
-79 -79 0 -59 c0 -54 3 -62 30 -85 23 -20 41 -26 79 -26 47 0 50 2 129 80 44
44 83 80 87 80 3 0 39 -34 80 -75 43 -44 88 -79 105 -84 59 -16 130 27 141 85
9 51 -5 76 -89 163 l-77 80 79 78 c44 44 83 91 86 106 17 66 -21 132 -82 143
-55 10 -83 -4 -164 -82 -88 -86 -86 -86 -161 -6 -25 27 -58 59 -73 70 -31 24
-87 29 -120 10z"/>
</g>
</svg>
